<svg xmlns="http://www.w3.org/2000/svg" viewBox="0 0 360 334.66"><defs><style>.cls-1{fill:#231f20;}</style></defs><title>audace</title><g id="Layer_2" data-name="Layer 2"><g id="Layer_1-2" data-name="Layer 1"><path d="M203.31,3c-25.86-7.25-52.58-1.41-73.33,16a86.66,86.66,0,0,0-30.53,75c1.17,11.68,7.3,28.78,18,38.75L122.9,127c-8.77-8.17-14.43-23.13-15.49-33.69a78.62,78.62,0,0,1,27.72-68.11c18.69-15.7,42.75-21,66-14.44,29.59,8.3,54.94,37.26,46.12,71.37-7,27.07-31.88,43.57-60.5,40.11a48.49,48.49,0,0,1-25.14-11,58.9,58.9,0,0,0,21.45,3.93c25.13,0,45.58-15,45.58-33.34s-20.45-33.34-45.58-33.34-45.59,15-45.59,33.34a24.48,24.48,0,0,0,.57,5.22h0c4.46,22.22,24.55,40.38,47.77,43.18,32.71,4,61.18-15,69.2-46C265.06,45.27,236.61,12.39,203.31,3ZM183.08,56.43c20.72,0,37.58,11.37,37.58,25.34s-16.86,25.34-37.58,25.34c-18.72,0-34.28-9.27-37.12-21.36l-.06-.27a17,17,0,0,1-.41-3.71C145.49,67.8,162.35,56.43,183.08,56.43Z"/><path d="M183.08,104.86A22.1,22.1,0,1,0,161,82.76,22.12,22.12,0,0,0,183.08,104.86Zm0-36.19A14.1,14.1,0,1,1,169,82.76,14.11,14.11,0,0,1,183.08,68.67Z"/><path class="cls-1" d="M50.56,316.09h7.63c3.43,0,5.67,1.76,5.67,5.07a4,4,0,0,1-1.77,3.58A4.31,4.31,0,0,1,64.62,329c0,3.41-2.31,5.31-5.89,5.31H50.56Zm3.76,3.32v4H58c1.38,0,2.09-.66,2.09-2s-.85-2-2.29-2Zm0,7.18V331h4c1.65,0,2.48-.73,2.48-2.17s-1-2.22-2.43-2.22Z"/><path class="cls-1" d="M85.09,334.32H80.84l-1.29-2.66H71.81l-1.29,2.66H66.28l9.4-18.59Zm-11.77-5.73H78l-2.36-4.85Z"/><path class="cls-1" d="M98.26,334.32l-3.56-6.56h-3v6.56H87.88V316.09h7.8a5.84,5.84,0,0,1,4.26,1.56,5.68,5.68,0,0,1,1.61,4.29,5.39,5.39,0,0,1-2.92,5.21l3.87,7.17Zm-6.63-9.89h3.58a2.51,2.51,0,1,0,0-5H91.63Z"/><path class="cls-1" d="M125.78,334.58l-2.85-2.38a7.24,7.24,0,0,1-5.53,2.36,7,7,0,0,1-4.8-1.49A4.89,4.89,0,0,1,111,329.3c0-2.17,1-3.63,2.85-5a5.21,5.21,0,0,1-1.44-3.41c0-3.29,2.24-5.09,5.65-5.09,3,0,5.24,1.73,5.65,4.62l-3.63.3a1.86,1.86,0,0,0-2-1.81,1.75,1.75,0,0,0-1.9,1.93,3.28,3.28,0,0,0,1.36,2.31l.91.76,3.84,3.21a21.09,21.09,0,0,0,.91-2.9l3.31.86a24.47,24.47,0,0,1-1.56,4.26l3,2.51Zm-5.36-4.5L116,326.37a3.2,3.2,0,0,0-1.24,2.59,2.37,2.37,0,0,0,2.68,2.41A4.1,4.1,0,0,0,120.42,330.08Z"/><path class="cls-1" d="M146.46,334.32l-3.56-6.56h-3v6.56h-3.78V316.09h7.8a5.84,5.84,0,0,1,4.26,1.56,5.68,5.68,0,0,1,1.61,4.29,5.39,5.39,0,0,1-2.92,5.21l3.87,7.17Zm-6.63-9.89h3.59a2.51,2.51,0,0,0,0-5h-3.59Z"/><path class="cls-1" d="M165.54,319.41h-7.92v3.94h6.88v3.24h-6.88V331h7.95v3.34H153.85V316.09h11.69Z"/><path class="cls-1" d="M180,317.34a5.15,5.15,0,0,1,1.92,4.09l-3.85.19a2.51,2.51,0,0,0-2.82-2.53c-1.69,0-2.71.9-2.71,2.19a1.58,1.58,0,0,0,.75,1.46,11.32,11.32,0,0,0,2.81.93,13.44,13.44,0,0,1,4.65,1.95,3.93,3.93,0,0,1,1.54,3.39,4.9,4.9,0,0,1-1.9,4.16,7.71,7.71,0,0,1-4.8,1.41,8.48,8.48,0,0,1-5.27-1.53,5.18,5.18,0,0,1-2-4.31l3.82-.2c.07,1.66,1.51,2.78,3.49,2.78,1.75,0,2.87-.68,2.87-2.12,0-1.29-1.05-1.83-3.75-2.51a16,16,0,0,1-3.53-1.19,4.22,4.22,0,0,1-2.49-4.1,5.24,5.24,0,0,1,1.68-4,6.69,6.69,0,0,1,4.8-1.6A7.38,7.38,0,0,1,180,317.34Z"/><path class="cls-1" d="M200.32,319.41h-6.09v14.91h-3.75V319.41h-6.11v-3.32h15.95Z"/><path class="cls-1" d="M218.12,334.32h-4.24l-1.29-2.66h-7.75l-1.29,2.66h-4.24l9.4-18.59Zm-11.77-5.73h4.73l-2.37-4.85Z"/><path class="cls-1" d="M235.16,316.09v10.82a7.5,7.5,0,0,1-2.07,5.65,9,9,0,0,1-11.38,0,7.5,7.5,0,0,1-2.07-5.65V316.09h3.75v10.77c0,2.85,1.39,4.39,4,4.39s4-1.54,4-4.39V316.09Z"/><path class="cls-1" d="M249.79,334.32l-3.56-6.56h-3v6.56h-3.78V316.09h7.8a5.84,5.84,0,0,1,4.26,1.56,5.68,5.68,0,0,1,1.61,4.29,5.39,5.39,0,0,1-2.92,5.21l3.87,7.17Zm-6.63-9.89h3.58a2.51,2.51,0,1,0,0-5h-3.58Z"/><path class="cls-1" d="M275.11,334.32h-4.24l-1.29-2.66h-7.75l-1.29,2.66H256.3l9.41-18.59Zm-11.77-5.73h4.73l-2.36-4.85Z"/><path class="cls-1" d="M288.7,326.08v-10h3.75v18.57l-10.77-10.31v10H277.9V315.75Z"/><path class="cls-1" d="M311.22,319.41h-6.09v14.91h-3.75V319.41h-6.12v-3.32h16Z"/><path class="cls-1" d="M60.73,281.69H47l-4.17-8.57h-25l-4.17,8.57H0l30.37-60Zm-38-18.49H38l-7.63-15.66Z"/><path class="cls-1" d="M117.42,222.85v34.92c0,7.8-2.21,13.93-6.69,18.25s-10.54,6.54-18.34,6.54S78.48,280.35,74,276s-6.69-10.45-6.69-18.25V222.85H79.42v34.77c0,9.2,4.48,14.15,13,14.15s12.9-4.95,12.9-14.15V222.85Z"/><path class="cls-1" d="M132,222.85h24.23q12.84,0,21,7.94c5.44,5.27,8.19,12.44,8.19,21.47s-2.75,16.29-8.19,21.56-12.49,7.87-21.06,7.87H132Zm12.1,10.37V271.3h12.2c10.47,0,17.07-6.68,17.07-19s-6.46-19-17.07-19Z"/><path class="cls-1" d="M249.32,281.69H235.64l-4.17-8.57h-25l-4.18,8.57H188.6l30.35-60Zm-38-18.49h15.26L219,247.54Z"/><path class="cls-1" d="M359.91,233.55H334.35v12.73h22.19v10.48H334.35v14.15H360v10.78H322.17V222.85h37.74Z"/><path class="cls-1" d="M298.32,259.55c-2,7.65-7.81,11.8-15.9,11.8a17.19,17.19,0,0,1-12.93-5.3c-3.34-3.52-5-8.5-5-15,0-6.12,1.63-11,4.81-14.7a16.58,16.58,0,0,1,13-5.56c8.09,0,13.95,4.3,16,12h13.43a25.53,25.53,0,0,0-9.7-17,30.45,30.45,0,0,0-19.29-6.28c-9.16,0-16.59,2.86-22.41,8.5s-8.66,13.25-8.66,23,2.86,17.33,8.66,23,13.34,8.51,22.49,8.51c7.52,0,14-2,19.29-6.21a25.75,25.75,0,0,0,9.71-16.8Z"/></g></g></svg>