<svg xmlns="http://www.w3.org/2000/svg" viewBox="0 0 180.34 103.08"><defs><style>.cls-1{fill:#ea1d2c;}.cls-2{fill:#40ae49;}.cls-3{fill:#fed103;}.cls-4{fill:#2d6fb7;}</style></defs><title>ihc</title><g id="Layer_2" data-name="Layer 2"><g id="Layer_1-2" data-name="Layer 1"><rect x="105.49" y="56.81" width="1.81" height="10.76"/><polygon points="110 56.81 111.02 56.81 118.07 64.68 118.15 64.68 118.15 56.81 118.94 56.81 118.94 67.82 118.52 67.82 110.89 59.07 110.82 59.07 110.82 67.57 110 67.57 110 56.81"/><path d="M123.46,66.79h1.92a4.9,4.9,0,0,0,1.72-.31,4,4,0,0,0,1.39-.89,4.13,4.13,0,0,0,.94-1.46,5.64,5.64,0,0,0,0-3.83,4.32,4.32,0,0,0-.91-1.43,4.46,4.46,0,0,0-1.39-.93,4.65,4.65,0,0,0-1.77-.34h-1.93Zm-1.81-10h3.59a11.21,11.21,0,0,1,2.84.31,5,5,0,0,1,2,1,5,5,0,0,1,1.37,1.78,5.18,5.18,0,0,1,.46,2.21,5.65,5.65,0,0,1-.41,2.13,4.82,4.82,0,0,1-1.2,1.73,5.7,5.7,0,0,1-2,1.18,7.53,7.53,0,0,1-2.66.43h-4Z"/><rect x="134.04" y="56.81" width="1.81" height="10.76"/><path d="M140.17,63.29h4L142.18,59Zm2.72-6.72,5.06,11h-1.84L144.46,64h-4.61l-1.7,3.59h-.9l5.18-11Z"/><polygon points="149.35 56.81 150.37 56.81 157.42 64.68 157.5 64.68 157.5 56.81 158.29 56.81 158.29 67.82 157.87 67.82 150.24 59.07 150.17 59.07 150.17 67.57 149.35 67.57 149.35 56.81"/><polygon points="107.3 80.03 107.3 85.2 105.49 85.2 105.49 74.44 107.3 74.44 107.3 79.34 112.7 79.34 112.7 74.44 114.51 74.44 114.51 85.2 112.7 85.2 112.7 80.03 107.3 80.03"/><polygon points="124.69 74.44 124.69 75.13 119.02 75.13 119.02 78.98 122.82 78.98 122.82 79.68 119.02 79.68 119.02 84.5 124.69 84.5 124.69 85.2 117.21 85.2 117.21 74.44 124.69 74.44"/><path d="M128.2,79.6h1a3.72,3.72,0,0,0,1.13-.16,2.51,2.51,0,0,0,.89-.46,2.06,2.06,0,0,0,.59-.72,2.11,2.11,0,0,0,.21-1,2.31,2.31,0,0,0-.17-.89,2,2,0,0,0-.47-.7,2.2,2.2,0,0,0-.72-.45,2.67,2.67,0,0,0-.91-.16H128.2Zm-1.81-5.16h3.73a6.23,6.23,0,0,1,1.7.21,3.59,3.59,0,0,1,1.21.58,2.32,2.32,0,0,1,.73.89,2.49,2.49,0,0,1,.25,1.12,2.26,2.26,0,0,1-.19.94,2.34,2.34,0,0,1-.53.79,3.24,3.24,0,0,1-.83.61,5.13,5.13,0,0,1-1.08.4l3.92,5.22h-2.09l-3.74-5.06H128.2V85.2h-1.81Z"/><rect x="136.69" y="74.44" width="1.81" height="10.76"/><polygon points="149.63 74.44 149.63 75.13 145.73 75.13 145.73 85.2 143.92 85.2 143.92 75.13 140.03 75.13 140.03 74.44 149.63 74.44"/><path d="M151.41,80.92h4l-2-4.26Zm2.71-6.72,5.07,11h-1.85l-1.64-3.59h-4.61l-1.7,3.59h-.91l5.19-11Z"/><path d="M166.06,75a4.46,4.46,0,0,0-1.81.35,4,4,0,0,0-1.41,1,4.55,4.55,0,0,0-.93,1.55,6,6,0,0,0-.33,2.05,5.55,5.55,0,0,0,.36,2,4.66,4.66,0,0,0,1,1.55,4.5,4.5,0,0,0,1.48,1,4.66,4.66,0,0,0,1.83.35,4,4,0,0,0,1.28-.19,3.35,3.35,0,0,0,1-.55V80.32h-2v-.64h3.84v4.73a10.35,10.35,0,0,1-1,.45,7.31,7.31,0,0,1-1,.33,9.79,9.79,0,0,1-1.22.19,13.62,13.62,0,0,1-1.5.07,6.82,6.82,0,0,1-2.47-.44,6,6,0,0,1-1.95-1.2,5.45,5.45,0,0,1-1.29-1.76,5.1,5.1,0,0,1-.46-2.15,5.54,5.54,0,0,1,.44-2.17,5.82,5.82,0,0,1,1.24-1.82,6.14,6.14,0,0,1,1.91-1.25,6.29,6.29,0,0,1,2.45-.46,5,5,0,0,1,1.58.23,5.58,5.58,0,0,1,1.33.61,5.64,5.64,0,0,1,1.06.88,7.51,7.51,0,0,1,.79,1l-.78.52A5.38,5.38,0,0,0,168,75.57a3.14,3.14,0,0,0-1.9-.6"/><polygon points="180.34 74.44 180.34 75.13 174.67 75.13 174.67 78.98 178.46 78.98 178.46 79.68 174.67 79.68 174.67 84.5 180.34 84.5 180.34 85.2 172.86 85.2 172.86 74.44 180.34 74.44"/><path d="M107.14,97.48a5.88,5.88,0,0,0,.34,2,4.49,4.49,0,0,0,.94,1.52,4.1,4.1,0,0,0,1.41.94,4.45,4.45,0,0,0,1.76.34,2.77,2.77,0,0,0,1.09-.23,3.86,3.86,0,0,0,1-.57,5,5,0,0,0,.81-.79,5.69,5.69,0,0,0,.58-.9l.76.49a6.88,6.88,0,0,1-.78,1,4.72,4.72,0,0,1-1,.88,5.5,5.5,0,0,1-1.34.62,5.83,5.83,0,0,1-1.68.23,6.34,6.34,0,0,1-2.43-.45,5.69,5.69,0,0,1-1.88-1.21,5.38,5.38,0,0,1-1.2-1.78,5.62,5.62,0,0,1-.43-2.16,5.49,5.49,0,0,1,.44-2.16,5.55,5.55,0,0,1,1.23-1.8,6,6,0,0,1,1.9-1.24,6.49,6.49,0,0,1,2.46-.46,5.29,5.29,0,0,1,1.58.23,5.72,5.72,0,0,1,1.32.62,5,5,0,0,1,1.06.88,5.9,5.9,0,0,1,.8,1l-.78.52a5.48,5.48,0,0,0-1.51-1.91,3.18,3.18,0,0,0-1.92-.6,4.57,4.57,0,0,0-1.74.33,4.13,4.13,0,0,0-1.42,1,4.71,4.71,0,0,0-1,1.54,5.74,5.74,0,0,0-.35,2"/><polygon points="125.3 92.06 125.3 92.76 119.63 92.76 119.63 96.61 123.43 96.61 123.43 97.31 119.63 97.31 119.63 102.13 125.3 102.13 125.3 102.82 117.82 102.82 117.82 92.06 125.3 92.06"/><polygon points="127 92.06 128.01 92.06 135.06 99.93 135.14 99.93 135.14 92.06 135.93 92.06 135.93 103.08 135.51 103.08 127.88 94.33 127.81 94.33 127.81 102.82 127 102.82 127 92.06"/><polygon points="147.06 92.06 147.06 92.76 143.17 92.76 143.17 102.82 141.36 102.82 141.36 92.76 137.47 92.76 137.47 92.06 147.06 92.06"/><path d="M150.4,97.23h1a3.72,3.72,0,0,0,1.13-.16,2.78,2.78,0,0,0,.89-.46,2.15,2.15,0,0,0,.59-.72,2.26,2.26,0,0,0,.2-1,2.3,2.3,0,0,0-.16-.88,2.1,2.1,0,0,0-.47-.7,2.2,2.2,0,0,0-.72-.45,2.51,2.51,0,0,0-.92-.16H150.4Zm-1.81-5.16h3.73a6.12,6.12,0,0,1,1.7.21,3.84,3.84,0,0,1,1.22.57,2.58,2.58,0,0,1,.73.89,2.67,2.67,0,0,1,.25,1.13,2.43,2.43,0,0,1-.19.94,2.47,2.47,0,0,1-.54.79,3.08,3.08,0,0,1-.83.61,4.84,4.84,0,0,1-1.07.4l3.92,5.21h-2.1l-3.74-5H150.4v5h-1.81Z"/><polygon points="166.38 92.06 166.38 92.76 160.71 92.76 160.71 96.61 164.5 96.61 164.5 97.31 160.71 97.31 160.71 102.13 166.38 102.13 166.38 102.82 158.9 102.82 158.9 92.06 166.38 92.06"/><path class="cls-1" d="M45,15.73l-6-4.48h0l6-4.48h0l6,4.48h0ZM45,0h0L30,11.25h0L45,22.51,60,11.25h0Z"/><path class="cls-2" d="M45,38.24l-6-4.48h0l6-4.48h0l6,4.48h0Zm0-15.73h0L30,33.76h0L45,45,60,33.76h0Z"/><path class="cls-3" d="M45,60.74l-6-4.47h0l6-4.47h0l6,4.47h0ZM45,45h0L30,56.26h0L45,67.52,60,56.27h0Z"/><path class="cls-1" d="M15,60.74,9,56.27H9l6-4.47h0l6,4.47h0ZM15,45h0L0,56.26H0L15,67.52,30,56.27h0Z"/><path class="cls-4" d="M45,83.25l-6-4.48h0l6-4.47h0l6,4.48h0Zm0-15.73h0L30,78.77h0L45,90,60,78.77h0Z"/><path class="cls-3" d="M75,38.24h0l-6-4.48h0l6-4.48h0l6,4.48h0Zm0-15.73h0L60,33.76h0L75,45,90,33.76h0Z"/><path class="cls-4" d="M105,38.24h0l-6-4.48h0l6-4.48h0l6,4.48h0Zm0-15.73h0L90,33.76h0L105,45l15-11.25h0Z"/><path class="cls-2" d="M75,83.25h0l-6-4.48h0l6-4.47h0l6,4.48h0Zm0-15.73h0L60,78.77h0L75,90,90,78.77h0Z"/><path class="cls-1" d="M75,60.74h0l-6-4.47h0l6-4.47h0l6,4.47h0Zm15-4.47h0L75,45h0L60,56.26h0L75,67.52Z"/></g></g></svg>