<svg xmlns="http://www.w3.org/2000/svg" viewBox="0 0 157.65 119.61"><defs><style>.cls-1{fill:#231f20;}</style></defs><title>lasalle</title><g id="Layer_2" data-name="Layer 2"><g id="Layer_1-2" data-name="Layer 1"><path class="cls-1" d="M78.22,17.4,95.63,0l39.16,39.16H100.25Zm.08,0L60.89,0,21.72,39.16H56.26Zm60.43,31.2V93.29h18.92v-5.2H144.07V73.46h12.1V68.25h-12.1V53.81h13.58V48.6ZM59.79,68.9l-4.35-2.05c-3-1.43-3.57-2.6-3.57-7a8.35,8.35,0,0,1,1.32-5.17A3.42,3.42,0,0,1,56,53.44a3.36,3.36,0,0,1,3,1.39c1,1.35,1.16,3,1.16,5.24v.2h5.16v-.2c0-4.48-.75-7.15-2.61-9.21A8.53,8.53,0,0,0,56,48.23a8.46,8.46,0,0,0-6.33,2.62c-2,2.06-3,5.24-3,9.22,0,6.68,1.27,9.31,5.41,11.25l4.41,2.05c3,1.43,3.68,2.85,3.68,8,0,2.83-.19,4.5-1.21,5.79a4.24,4.24,0,0,1-6.13.06c-1-1.13-1.27-2.56-1.27-5.66v-.21H46.43v.21c0,4.86.67,7.42,2.44,9.45,1.6,1.83,4,2.76,7,2.76A9.21,9.21,0,0,0,62.92,91c1.76-2,2.44-4.75,2.44-9.77,0-6.58-.83-10.11-5.57-12.31M5.38,88.09V48.6H0V93.29H19v-5.2Zm116.05,0V48.6h-5.34V93.29H135v-5.2ZM99,88.09V48.6H93.68V93.29H112.6v-5.2Zm-8.94,5.2H84.7l0-.17L82.84,82.85H74.15L72.32,93.12l0,.17H67L67,93l9.07-44.27,0-.17H81l0,.17L90,93ZM82.37,78.06l-.05-.25-3.8-21.48L74.66,77.81l0,.25ZM45.05,93.29H39.66l0-.17L37.81,82.85H29.12L27.29,93.12l0,.17H21.93L22,93l9.07-44.27,0-.17H36l0,.17L45,93ZM37.34,78.06l0-.25L33.49,56.33,29.63,77.81l0,.25ZM6.67,118.7A4.69,4.69,0,0,0,8,115.29h-2a3.05,3.05,0,0,1-.54,1.9,1.55,1.55,0,0,1-1.31.61,1.59,1.59,0,0,1-1.37-.63c-.59-.8-.7-2.14-.7-6.11s.11-5.3.7-6.1a1.59,1.59,0,0,1,1.37-.64,1.56,1.56,0,0,1,1.31.59,3.14,3.14,0,0,1,.52,1.93h2a4.76,4.76,0,0,0-1.2-3.34,3.63,3.63,0,0,0-2.65-1,3.65,3.65,0,0,0-2.87,1.2C.07,105,0,106.88,0,111.06s.07,6.09,1.22,7.35a3.62,3.62,0,0,0,2.87,1.2,3.55,3.55,0,0,0,2.58-.91m10.12-.29c1.16-1.26,1.2-3.17,1.2-7.35s0-6.08-1.2-7.35a3.7,3.7,0,0,0-2.89-1.2,3.65,3.65,0,0,0-2.86,1.2c-1.15,1.27-1.22,3.17-1.22,7.35s.07,6.09,1.22,7.35a3.61,3.61,0,0,0,2.86,1.2,3.66,3.66,0,0,0,2.89-1.2M15.27,105c.58.8.7,2.13.7,6.1s-.12,5.31-.7,6.11a1.59,1.59,0,0,1-1.37.63,1.58,1.58,0,0,1-1.36-.63c-.58-.8-.7-2.14-.7-6.11s.12-5.3.7-6.1a1.59,1.59,0,0,1,1.36-.64,1.59,1.59,0,0,1,1.37.64m11.42,14.46v-1.8H22.25V102.7h-2v16.72Zm8.38,0v-1.8H30.64V102.7h-2v16.72Zm8.4,0v-1.8H39v-5.69h3.83v-1.81H39v-5.61h4.45V102.7H37v16.72Zm6,.19c2.19,0,3.88-1.43,3.88-4.2v-5H49.47v1.69h1.86v3.34c0,1.36-.68,2.32-1.86,2.32a1.59,1.59,0,0,1-1.36-.63c-.59-.8-.7-2.14-.7-6.11s.11-5.3.7-6.1a1.6,1.6,0,0,1,1.36-.64c1.55,0,1.86,1.41,1.86,2.54h2a4.71,4.71,0,0,0-1.18-3.31,4,4,0,0,0-5.56.16c-1.15,1.27-1.22,3.17-1.22,7.35s.07,6.09,1.22,7.35a3.61,3.61,0,0,0,2.86,1.2M62,119.42v-1.8H57.52v-5.69h3.84v-1.81H57.52v-5.61H62V102.7H55.51v16.72Zm12.47-1c1.15-1.26,1.19-3.17,1.19-7.35s0-6.08-1.19-7.35a3.73,3.73,0,0,0-2.89-1.2,3.67,3.67,0,0,0-2.87,1.2c-1.15,1.27-1.22,3.17-1.22,7.35s.07,6.09,1.22,7.35a3.63,3.63,0,0,0,2.87,1.2,3.69,3.69,0,0,0,2.89-1.2M72.9,105c.59.8.7,2.13.7,6.1s-.11,5.31-.7,6.11a1.57,1.57,0,0,1-1.36.63,1.6,1.6,0,0,1-1.37-.63c-.58-.8-.7-2.14-.7-6.11s.12-5.3.7-6.1a1.61,1.61,0,0,1,1.37-.64,1.57,1.57,0,0,1,1.36.64m11.42-.45V102.7H77.87v16.72h2v-7.49h3.83v-1.81H79.88v-5.61Zm12.3,0V102.7H89v1.81H91.8v14.91h2V104.51Zm9.25,14.91V102.7h-2V110h-3.71V102.7h-2v16.72h2v-7.58h3.71v7.58Zm8.85,0v-1.8h-4.43v-5.69h3.82v-1.81h-3.82v-5.61h4.43V102.7h-6.45v16.72Zm15.16,0L126,102.7h-2l-3.9,16.72h2.12l.79-3.94H127l.79,3.94Zm-3.32-5.75h-3.12L125,106Zm11.15,5.75h2.11l-2.55-7.58c1.45-.68,2-2,2-4.37,0-3.66-1.41-4.77-3.94-4.77h-3.79v16.72h2v-7.18h1.84l2.3,7.18m-2.35-14.91c1.55,0,1.91,1.2,1.91,3s-.36,3-1.91,3h-1.79v-5.94h1.79m13,0V102.7h-7.62v1.81h2.82v14.91h2V104.51Zm7.87,14.07c.8-.8,1-1.9,1-3.64,0-2.63-.45-3.81-2.35-4.58l-1.88-.78c-1.33-.56-1.59-1-1.59-2.7a2.9,2.9,0,0,1,.58-2,1.66,1.66,0,0,1,1.29-.52,1.64,1.64,0,0,1,1.36.56,2.92,2.92,0,0,1,.52,2h2a4.43,4.43,0,0,0-1.1-3.43,3.85,3.85,0,0,0-2.78-1,3.79,3.79,0,0,0-2.65,1,4.53,4.53,0,0,0-1.27,3.43c0,2.54.57,3.48,2.29,4.18l1.89.78c1.36.56,1.65,1.15,1.65,3.07a3.09,3.09,0,0,1-.54,2.24,2.14,2.14,0,0,1-2.82,0,2.94,2.94,0,0,1-.57-2.19h-2c0,1.79.26,2.75,1,3.53a4,4,0,0,0,2.94,1,4.12,4.12,0,0,0,2.95-1"/></g></g></svg>