<svg xmlns="http://www.w3.org/2000/svg" viewBox="0 0 288.5 81.14"><defs><style>.cls-1{fill:#03428e;}.cls-1,.cls-2,.cls-3{fill-rule:evenodd;}.cls-2{fill:#fff;}.cls-3{fill:#ed1c24;}</style></defs><title>nippon</title><g id="Layer_2" data-name="Layer 2"><g id="Layer_1-2" data-name="Layer 1"><path class="cls-1" d="M95,36.23,99.85,9.34a1.3,1.3,0,0,1,1.29-.9h9.07a1,1,0,0,1,1,.54l7.1,14.33a52.17,52.17,0,0,1,.8-5.34l1.55-8.63a1.29,1.29,0,0,1,1.3-.9h8c.51,0,1.06.33,1,.9L126,36.23a1.28,1.28,0,0,1-1.29.89H115.8a1,1,0,0,1-.92-.49l-7.19-14.54c-.15,1.77-.54,3.56-.85,5.33l-1.59,8.8a1.28,1.28,0,0,1-1.29.9H96c-.55,0-1.06-.35-1-.89"/><path class="cls-1" d="M252.65,36.23l4.84-26.89a1.31,1.31,0,0,1,1.29-.9h9.07a1,1,0,0,1,.95.54l7.1,14.33a52.17,52.17,0,0,1,.8-5.34l1.55-8.63a1.3,1.3,0,0,1,1.3-.9h8c.51,0,1.06.33,1,.9l-4.84,26.89a1.28,1.28,0,0,1-1.29.89h-8.92a1,1,0,0,1-.92-.49L265.33,22.1c-.15,1.76-.54,3.55-.85,5.32l-1.59,8.8a1.28,1.28,0,0,1-1.29.9h-8c-.55,0-1.06-.35-1-.89"/><path class="cls-1" d="M134,36.22,138.8,9.35a1.29,1.29,0,0,1,1.29-.91h9.38c.52,0,1.05.34.95.9l-4.83,26.87a1.28,1.28,0,0,1-1.3.91h-9.38c-.5,0-1-.32-.95-.9"/><path class="cls-1" d="M153.33,36.22l4.83-26.88a1.3,1.3,0,0,1,1.29-.9h13.11c2.73,0,6.34.32,8.65,2.32,4.16,3.58,1.78,10.42-2.16,13.08a16,16,0,0,1-9.16,2.5h-3.58l-1.78,9.88a1.28,1.28,0,0,1-1.29.9h-9c-.5,0-1.06-.32-.95-.9M167.27,21h1.5a4.68,4.68,0,0,0,3-1c1.58-1.28,2.14-4,1-5.26a4,4,0,0,0-2.91-.9h-1.28Z"/><path class="cls-1" d="M184.85,36.22l4.83-26.88a1.3,1.3,0,0,1,1.29-.9h13.11c2.73,0,6.34.32,8.65,2.32,4.16,3.58,1.78,10.42-2.16,13.08a16,16,0,0,1-9.16,2.5h-3.58l-1.78,9.88a1.28,1.28,0,0,1-1.29.9h-9c-.5,0-1.06-.32-1-.9M198.79,21h1.5a4.68,4.68,0,0,0,3-1c1.58-1.28,2.14-4,.95-5.26a4,4,0,0,0-2.91-.89h-1.28Z"/><path class="cls-1" d="M223.87,12c6.16-5,18.34-5.89,23.65-.13,5.94,6.44,2.07,17.16-4,21.82C236.75,39,224.6,39,220.07,33.62c-5.46-6.42-2.39-16.57,3.8-21.58m8.64,19.08a5.11,5.11,0,0,0,3.74-2.07c1.73-2.22,3.8-8.18,2.31-12.38a3.34,3.34,0,0,0-3.39-2.23,5.06,5.06,0,0,0-3.81,2.12c-1.92,2.56-3.73,8.43-2.24,12.45A3.35,3.35,0,0,0,232.51,31.12Z"/><path class="cls-1" d="M198.81,72.22l4.84-26.89a1.3,1.3,0,0,1,1.29-.9H214a1,1,0,0,1,1,.54l7.1,14.33a52.17,52.17,0,0,1,.8-5.34l1.55-8.63a1.3,1.3,0,0,1,1.3-.9h8c.51,0,1.06.33,1,.9l-4.84,26.89a1.3,1.3,0,0,1-1.3.89H219.6a1,1,0,0,1-.93-.49l-7.18-14.53c-.15,1.76-.54,3.55-.86,5.32l-1.58,8.8a1.28,1.28,0,0,1-1.29.9h-8c-.54,0-1.05-.35-1-.89"/><path class="cls-1" d="M179.46,72.21l4.83-26.87a1.29,1.29,0,0,1,1.29-.91H195c.53,0,1.06.34,1,.9L191.08,72.2a1.27,1.27,0,0,1-1.3.91H180.4c-.5,0-1.05-.32-.94-.9"/><path class="cls-1" d="M116.23,72.21l4.84-26.88a1.3,1.3,0,0,1,1.28-.9h13.12c2.72,0,6.33.32,8.65,2.32,4.16,3.58,1.78,10.42-2.17,13.08a16,16,0,0,1-9.16,2.5h-3.57l-1.78,9.88a1.29,1.29,0,0,1-1.29.9h-9c-.49,0-1.05-.32-1-.9M130.17,57h1.5a4.68,4.68,0,0,0,3-1c1.58-1.28,2.14-4,.95-5.26a4,4,0,0,0-2.9-.9h-1.29Z"/><path class="cls-1" d="M142.21,72l15-26.94a1.36,1.36,0,0,1,1.17-.59h11.24c.38,0,.88.18.95.59L175.2,72c.13.61-.59,1.14-1.26,1.14h-9a.9.9,0,0,1-1-.7l-.41-3.7H155l-1.78,3.69a1.36,1.36,0,0,1-1.22.71h-9c-.67,0-1.19-.5-.83-1.15m15.84-9.59H163l-.48-5.92a34.72,34.72,0,0,1,0-4.33,32.53,32.53,0,0,1-1.7,4.36Z"/><path class="cls-1" d="M247,51.19h-6.47c-.51,0-1-.34-.94-.9l.9-4.95a1.3,1.3,0,0,1,1.29-.91h24.54c.5,0,1.05.32.94.92l-.9,4.93a1.29,1.29,0,0,1-1.28.91h-6.46l-3.76,21a1.3,1.3,0,0,1-1.29.89h-9.39c-.51,0-1.05-.33-.95-.89Z"/><path class="cls-2" d="M72.32.25H.25v70A10.69,10.69,0,0,0,10.92,80.89H83v-70A10.69,10.69,0,0,0,72.32.25"/><path class="cls-1" d="M4.26,4.26h68A6.74,6.74,0,0,1,79,11v65.9H11a6.74,6.74,0,0,1-6.73-6.72Z"/><path class="cls-2" d="M37,63.63V41.47c0-6.67,8.13-8.22,9.2-.83.86,6-4.74,16.46-8.62,23.11-.22.38-.58.33-.58-.12M37,16V13.32h0v-1.2a1.43,1.43,0,0,0-1.42-1.48H14.73a1.43,1.43,0,0,0-1.42,1.42v53a1.43,1.43,0,0,0,1.42,1.42H65.88c.81,0,1.12-.38,1-1.18l-.37-2.12c-1-5.76,5.27-16.67,4.8-28A23.4,23.4,0,0,0,37,16Z"/><path class="cls-3" d="M16.15,16.36h18v5.15A20,20,0,0,1,47.93,16,21,21,0,0,1,67.66,30.34c3.68,11.91-5.28,25.27-3.9,33.34H40.9C47.17,53.07,49.62,44.92,49,40.31c-1-7.39-7.58-9.26-12.1-5.43-2.42,2-2.72,4.55-2.72,7.53V63.68h-18Z"/><path class="cls-1" d="M0,0H72.32A10.94,10.94,0,0,1,83.23,10.91V81.14H10.92A10.94,10.94,0,0,1,0,70.23ZM72.32.25H.25v70A10.69,10.69,0,0,0,10.92,80.89H83v-70A10.69,10.69,0,0,0,72.32.25Z"/></g></g></svg>