<svg xmlns="http://www.w3.org/2000/svg" viewBox="0 0 179.75 140.24"><defs><style>.cls-1{fill:#fff;}.cls-2{fill:#00817b;}</style></defs><title>stb</title><g id="Layer_2" data-name="Layer 2"><g id="Layer_1-2" data-name="Layer 1"><path class="cls-1" d="M25,140.24a25,25,0,0,1-25-25c0-5.68,5.47-25.93,5.47-45.15S0,30.68,0,25A25,25,0,0,1,25,0C35.11,0,51.58,6.24,89.87,6.24S143.89,0,154.79,0A25.09,25.09,0,0,1,172.4,7.39,24.72,24.72,0,0,1,179.75,25c0,5.77-5.48,25.53-5.48,45.16s5.48,39.42,5.48,45.15a25,25,0,0,1-25,25c-10.9,0-26.41-6.25-64.92-6.25S35.11,140.24,25,140.24Z"/><path class="cls-2" d="M89.87,127c25.35,0,54,8.08,64.92,8.08a19.77,19.77,0,0,0,19.75-19.76c0-10.88-7.3-31.77-7.3-45.15s7.3-34.22,7.3-45.16A20,20,0,0,0,154.79,5.2c-10.58,0-39.57,8.08-64.92,8.08S35.86,5.2,25,5.2A19.78,19.78,0,0,0,5.2,25c0,10.89,7.31,31.62,7.31,45.16S5.2,104.45,5.2,115.27A19.8,19.8,0,0,0,25,135C35.89,135,64.52,127,89.87,127Z"/><path class="cls-1" d="M39.36,70.85s-1.94-.15-3.51-.15V83.12a1,1,0,0,0,.56.94H33.22a1,1,0,0,0,.56-.94V70.7c-1.61,0-3.53.15-3.53.15a1.47,1.47,0,0,0-1.12.81V69.85H40.46l0,1.81A1.52,1.52,0,0,0,39.36,70.85Z"/><path class="cls-1" d="M60.81,77.08c-.11,4.76-4.44,7.27-8,7.16-4.17-.08-7.86-3.19-7.75-7.5a7.64,7.64,0,0,1,8.18-7.08C56.76,69.72,60.92,72.31,60.81,77.08Zm-7.88-6.54c-3.19,0-5.58,2.27-5.58,6.1,0,4.57,3,6.64,5.62,6.64,3.19,0,5.47-2.38,5.47-6.14C58.48,73.11,56.16,70.54,52.93,70.54Z"/><path class="cls-1" d="M70.56,69.85a1.08,1.08,0,0,0-.71.94v8.84c0,1.44.52,3.65,3.55,3.65s3.8-1.77,3.8-3.65l-.09-8.84a1,1,0,0,0-.56-.94h2.26a1,1,0,0,0-.58.94l-.07,8.75c0,3.43-2.28,4.7-5,4.7-2.37,0-5.41-1.12-5.41-4.66V70.79a1.06,1.06,0,0,0-.67-.94Z"/><path class="cls-1" d="M95.28,73.34a3.69,3.69,0,0,1-3.4,3.51A3.39,3.39,0,0,1,94,78.41a44.83,44.83,0,0,0,3.23,4.81,4.15,4.15,0,0,0,1.38.84l-2.2,0a2.26,2.26,0,0,1-1.77-1c-1.1-1.57-1.87-2.85-2.63-4-.56-.83-1-1.73-2.13-1.73H88.6v5.75a1.07,1.07,0,0,0,.61.94H86a1.06,1.06,0,0,0,.58-.94V70.79a1,1,0,0,0-.58-.94h4C94.35,69.85,95.28,72,95.28,73.34Zm-5.06-2.66c-1,0-1.62.07-1.62.07v5.74s.69,0,1.25,0a3,3,0,0,0,3.26-3.13A2.68,2.68,0,0,0,90.22,70.68Z"/><path class="cls-1" d="M107.79,69.85a1,1,0,0,0-.56.94V83.12a1,1,0,0,0,.56.94H104.6a1,1,0,0,0,.58-.94V70.79a1,1,0,0,0-.58-.94Z"/><path class="cls-1" d="M121,75.51c2,1,4.07,1.67,4.07,4.47,0,2.61-2.45,4.26-4.76,4.26a7.91,7.91,0,0,1-4-1.17l-.07-3.13c.45,1.5,1.62,3.43,3.92,3.43a2.72,2.72,0,0,0,2.93-2.8c0-2-1.57-2.41-3.64-3.43s-3.14-2.07-3.14-3.78c0-2.51,2.41-3.7,4.45-3.7a5.9,5.9,0,0,1,3.08.79l.11,2.76a3.78,3.78,0,0,0-3.49-2.72,2.18,2.18,0,0,0-2.39,2.22C118.1,74,119,74.53,121,75.51Z"/><path class="cls-1" d="M141.06,80.57l4.67-10.72h2.78a1,1,0,0,0-.56.94V83.12a1,1,0,0,0,.56.94h-3.19a1,1,0,0,0,.56-.94V72.27a2.42,2.42,0,0,1,.05-.44l-.15.48-5.33,12-5.21-11.7-.19-.55s0,.36,0,.55V83.12a1,1,0,0,0,.6.94h-2.17a1,1,0,0,0,.56-.94V70.79a1.09,1.09,0,0,0-.67-.94h2.91Z"/><path class="cls-1" d="M51.6,95c0,2.63-2.43,2.84-3.49,2.84-.52,0-.9,0-.9,0V92.49s.49,0,1.42,0C50.05,92.45,51.6,93.14,51.6,95Zm-2.93-3.37H44.58a.93.93,0,0,1,.6.94v12.33a1,1,0,0,1-.6.94h4.65c4.61,0,5.78-2.3,5.78-3.93,0-3.44-4.27-3.74-4.27-3.74s2.91-.83,2.91-3.3C53.65,92,50.14,91.59,48.67,91.59Zm4,10.07c0,3.12-3.14,3.31-4.5,3.31a6.16,6.16,0,0,1-1-.07V98.72s1,0,1.72,0C50.74,98.68,52.72,99.22,52.72,101.66Z"/><path class="cls-1" d="M76.76,98.82c-.11,4.77-4.44,7.27-8,7.17-4.18-.08-7.86-3.2-7.75-7.5a7.65,7.65,0,0,1,8.18-7.09C72.71,91.47,76.87,94.06,76.76,98.82Zm-7.89-6.54c-3.18,0-5.58,2.28-5.58,6.1,0,4.58,3,6.65,5.63,6.65,3.18,0,5.47-2.38,5.47-6.15C74.43,94.85,72.1,92.28,68.87,92.28Z"/><path class="cls-1" d="M88,91.26s5.56,12.72,5.9,13.52c.17.44.32.69,1.08,1h-3.9c.56-.25.71-.54.54-1-.13-.25-.74-1.59-1.4-3.2H84.68c-.71,1.57-1.27,3-1.36,3.2-.17.48-.11.81.45,1H81.14a2.33,2.33,0,0,0,1-1C82.5,104,88,91.26,88,91.26Zm-3,9.42h4.85c-1.12-2.63-2.43-5.85-2.43-5.85S86,98.43,85,100.68Z"/><path class="cls-1" d="M111.19,95.08a3.68,3.68,0,0,1-3.41,3.51,3.34,3.34,0,0,1,2.09,1.57A47.54,47.54,0,0,0,113.1,105a4.14,4.14,0,0,0,1.38.83l-2.19,0a2.25,2.25,0,0,1-1.77-1c-1.1-1.57-1.87-2.84-2.63-4-.56-.84-1-1.74-2.13-1.74h-1.25v5.75a1.08,1.08,0,0,0,.6.94H101.9a1,1,0,0,0,.58-.94V92.53a1,1,0,0,0-.58-.94h4C110.26,91.59,111.19,93.77,111.19,95.08Zm-5.06-2.65c-1,0-1.62.06-1.62.06v5.75s.69,0,1.25,0A3,3,0,0,0,109,95.14,2.66,2.66,0,0,0,106.13,92.43Z"/><path class="cls-1" d="M132.37,98.47c0,3.11-1.42,6.43-6.33,6.43-.65,0-1.66,0-2.43,0V92.53c.47-.08,1.94,0,2.73,0A5.72,5.72,0,0,1,132.37,98.47ZM121,91.59a1,1,0,0,1,.56.94v12.33a1,1,0,0,1-.56.94h5c6.14,0,8.68-4,8.68-7.33,0-1.82-1.12-6.88-8.27-6.88Z"/><path class="cls-1" d="M39,23.44a5,5,0,0,1,1.47,0c.3,0,.94.76.95,1,.15,2.66-2.18,4.68-2.87,5.46-.55.62-1.27,1.4-1.4,1.6-.53.88-.72.34-.55-.4.12-.55.52-.91,1.11-1.62A13.15,13.15,0,0,0,39.33,27,6.89,6.89,0,0,0,40,25.11a.94.94,0,0,0-.77-.2c-.59,0-.94.2-2.75,2.21A10.65,10.65,0,0,0,34,34.84a18,18,0,0,0,1.48,6.63c1.21,2.84,2.48,5.2,2.27,7.73-.27,3.33-3.31,5.89-4.5,6.53a2,2,0,0,1-2.42,0,3.79,3.79,0,0,1-1.68-2.28,6.88,6.88,0,0,1,.72-3.27,5.51,5.51,0,0,1,1.73-2.43c.61-.44.41.25.35.49a31.3,31.3,0,0,0-1.06,3.36,4.67,4.67,0,0,0-.08,2,2,2,0,0,0,1.62-.05,6.5,6.5,0,0,0,1.74-3,9.84,9.84,0,0,0-.12-4.79c-.65-3.17-2.63-6.35-3.4-9.07a10.83,10.83,0,0,1,.27-5.7c.35-1.32.94-2.09,2.4-3.56C35.07,25.58,36.65,23.82,39,23.44Zm62.86,8c.41-.33-.28,1.51.12,3.24.05.23-.3.46-.37.55a11.2,11.2,0,0,0-2.73,4.94c-.14.59-.17.77.2.37s1.16-1.32,1.59-1.81c3.36-3.85,5.49-4.54,7-3.37,2,1.56.6,4.42.07,5.72-.09.24.07.19.38,0s2.67-1.51,4.19-2.51c1.23-.82,2.87-2,3.4-2.5s.5.92.4,1.54c-.15.91-.22,1.22-.55,1.52-1,.91-2.88,2.44-3.15,3.92-.44,2.4.79,2.82,1.59,2.93,2,.27,4-2.19,4.19-3.76,0-.23-.28-.41-.82-.75a2.08,2.08,0,0,1-.55-3.31c.31-.36,1.36-1.27,2.37-.43.77.61,1.49,1.28,1.52,1.75s0,1.4.35,1.41c1.47,0,4.12-1.13,5.38-1.84,2.68-1.5,4.63-2.73,5.92-3.48.66-.38.51.25.4.54a12.81,12.81,0,0,1-1.12,1.67c-.09.18-.34.64.2.44,1.63-.58,4.62-1.9,6.61-2,.91-.08.67.19.34.35-.84.42-1.29,2.21-1.93,2.56s-1.18.15-1.92.22a7.08,7.08,0,0,0-2.81.94,12.36,12.36,0,0,0-4.42,4.5,45.81,45.81,0,0,0-3,6.19c-.29,1.15-.57.85-.74.71-1.08-.9.13-4.46,1.32-7.12a35.58,35.58,0,0,1,2.58-5c.42-.66.21-.38-.1-.19s-2.8,1.85-3.79,2.26a16.07,16.07,0,0,1-3,1c-.59.06-.59,1-1.2,2.14-1.37,2.68-3.77,4.85-5.84,4.84a4.23,4.23,0,0,1-4.07-3.51c-.39-1.85.65-3.32,1.47-4.85.38-.71.1-.59-.08-.55-3.18.67-7.08,4.85-11.64,4.89-.7,0-.8-.23-.42-.33,1.49-.42,5.82-2.09,7.17-5.48.39-1,0-2.17-.93-2.07s-2.29.1-4.54,2.32a13.86,13.86,0,0,0-3.77,6.84c-.41,1.81-1.2,4.81-1.6,7.43-.18,1.16-.41,4.63-.39,5s-.32.32-.47,0a10.63,10.63,0,0,1-1-4.82A26.68,26.68,0,0,1,94,49.74a17.26,17.26,0,0,0,.45-3.8c0-.25-.11-.14-.28.1a7.15,7.15,0,0,1-3.07,2.41,1.68,1.68,0,0,1-1.8-.8c-.62-.88-.69-3.19-.73-3.49-.06-.47-.26-.18-.32-.1-.21.31-.81,1.21-1.13,1.66a6.39,6.39,0,0,1-3.31,2.58,2.74,2.74,0,0,1-2.65-1.54c-.86-1.41-.29-3.38.37-4.7.11-.23.18-.47-.1-.28-.48.33-1.75,1.23-2.88,2.14a20.42,20.42,0,0,0-3.29,3c.06.28.51,1.46.91,2.54,1.9,5.05,2.88,10-1.82,13.26a6.33,6.33,0,0,1-5.11,1,2.83,2.83,0,0,1-2-2.42,12.75,12.75,0,0,1,.42-4.34,44.67,44.67,0,0,1,3.42-6.27c.84-1.43,1.88-2.38,1.92-2.94a8.23,8.23,0,0,0-.5-2.23,15.7,15.7,0,0,1-.77-4.29c0-.52-.31-.44-.45,0a25.71,25.71,0,0,1-1.81,3.66,4.22,4.22,0,0,1-3.7,2.25c-1.18,0-1.61-1.37-1.65-1.86C64,44.49,64,43,64,42.77c-.05-.66-.35-1.17-1-1.19a1.39,1.39,0,0,0-1.38.56,19.41,19.41,0,0,0-2.23,3,29.28,29.28,0,0,0-1.76,3.29c-.52,1.16-.49,1.79-1.21,1.75s-1-1.68-1-2.38a23.1,23.1,0,0,1,.92-5.32c.14-.62.19-.62-.07-.84s-.34-.06-.66.37a15,15,0,0,0-1.31,2.32,7.6,7.6,0,0,1-2.77,3.43,3.31,3.31,0,0,1-2.1.36c-.36,0-.8-.59-1-.94-1.12-2-1.35-3.76-1.83-4.72-.27-.54-.46-.46-.76-.34-.85.32-1.22,1.2-2.07,1.73a6.53,6.53,0,0,1-4.41.79,3.3,3.3,0,0,1-2.49-1.54c-.23-.52.29-.21.4-.14a4.64,4.64,0,0,0,2.56.94,4.47,4.47,0,0,0,3.51-1.7c.59-.78,1.52-2.86,2.53-3.65s1.82-.91,2.54.33a3.21,3.21,0,0,1,.37,1.47c0,.34.37,1.13.36,1.49a23,23,0,0,0,0,2.74A2.83,2.83,0,0,0,50,46.73c.42.46.67.09,1.28-.13s2-2,3.25-4.49c.33-.65,1.19-2.29,2.4-4.25a2.55,2.55,0,0,1,.68-.85,1.06,1.06,0,0,1,1.11.09,2.9,2.9,0,0,1,.81,2.08c0,.29-.1,2-.09,3,0,.37.12.36.3.15.64-.8,1.71-2,2.14-2.49a3.67,3.67,0,0,1,2-1,2.16,2.16,0,0,1,1.77.65c1,1.06.69,2.29,1.28,4.34.12.41.31.3.6.29a3,3,0,0,0,1.68-1,8.41,8.41,0,0,0,1.45-2.55,21.42,21.42,0,0,1,1-2.09c.19-.23.74-2.67,1.24-3.45.75-1.18,1.49-2.08,2.73-2.29A3.87,3.87,0,0,1,79.29,34a3.44,3.44,0,0,1-.15,3.53,8.22,8.22,0,0,1-1.27,1.34l-.94.89c-.38.34-.46-.09-.3-.63.12-.37.76-.86,1.27-1.37a2.38,2.38,0,0,0,.6-1.7c0-.5.11-1-1.26-.95-.75,0-1.78.61-2.87,2.74-.94,1.84-.79,4.31-.59,6.18.27.31.42,1.44.74,2,.09.15.18.1.35-.05.67-.6,2.56-2.4,3.65-3.39a34.41,34.41,0,0,1,6.64-5.22,20.72,20.72,0,0,1,3.53-1.61A11.07,11.07,0,0,1,93,34.93c.4,0,.23.59,0,.77a1.45,1.45,0,0,0-.69,1.06,1,1,0,0,1-1,1,22.37,22.37,0,0,0-2.29,0c-1.36.59-4,1.54-4.94,2.66a3.29,3.29,0,0,0-.88,3.51c.37,1.34,1.68,1.1,2.36,1a21.11,21.11,0,0,0,2.56-3l1.53-2.09c.26-.36.48-.5.56-.16a15.26,15.26,0,0,1,.11,3.47c0,.53.09,1.15.13,1.68.07.74,1.41,1.36,2.78.37a11.46,11.46,0,0,0,2.24-3.07C97.52,38.68,99.08,34.05,101.84,31.46Zm-52.35.21a1.15,1.15,0,0,1,.63,0,2,2,0,0,1,.7.5c.2.16.17.71,0,1.15a2,2,0,0,1-.69.95,9.71,9.71,0,0,0-1.27,1.17c-.11.16-.16.5-.6.43s-.52-.57-.87-.82-.13-.59,0-.86A8.08,8.08,0,0,1,49.49,31.67ZM143.2,36a4.25,4.25,0,0,1,4.29-.1c1.37,1.22,1.83,1.59,1.62,4.08-.09,1.11-2.39,4.17-7.67,5.73a2.33,2.33,0,0,0,2.1,2c2.9.36,6.09-1.11,6.61-1.28s.43.13.14.39a9.69,9.69,0,0,1-7.5,2.35c-3.39-.51-3.69-1.66-4.52-2.74a.55.55,0,0,0-.46-.14,17.57,17.57,0,0,1-1.81-.1,2.53,2.53,0,0,1-2.21-1.41c0-.1-.12-.53.35-.14a3.11,3.11,0,0,0,1.74.75,3.22,3.22,0,0,0,1.81-.18,8.06,8.06,0,0,1,.4-4.18A11.79,11.79,0,0,1,143.2,36Zm.55,1.82a6.76,6.76,0,0,0-2.42,3.4,7.21,7.21,0,0,0-.27,2.84c2.11-1.11,4.07-2.73,4.71-5,.13-.47.21-1.37-.71-1.37C144.49,37.66,144.07,37.57,143.75,37.8ZM73.38,49.38a36.94,36.94,0,0,0-3.76,6.51c-.5,1-1.67,3.91-1,6.24,1.33.29,3-.31,4.65-2.77C74.55,57.44,74.47,53.14,73.38,49.38Z"/></g></g></svg>