<svg xmlns="http://www.w3.org/2000/svg" viewBox="0 0 333.98 71.83"><defs><style>.cls-1{fill:#231f20;}.cls-2{fill:#0078b9;}.cls-3{fill:#fff;}.cls-4{fill:#ed1b2f;}</style></defs><title>wanderlust</title><g id="Layer_2" data-name="Layer 2"><g id="Layer_1-2" data-name="Layer 1"><path class="cls-1" d="M0,42.85l1.15-.45,1.67,4.69-1.23.36ZM5.55,55l-1.14.45L2.73,50.7l1.15-.36Zm1.59,8.3-1.68-4.6L6.7,58.2l1.58,4.69ZM13,66.59,11.36,71H9.87L8.28,66.59l1.15-.45,1.23,3.61,1.14-3.61Zm1.5-8.39,1.23.45-1.68,4.6L13,62.89Zm2.81-7.86,1.15.36-1.59,4.7L15.68,55Zm4.59-2.89L20.79,44l-1.15,3.43-1.14-.36,1.58-4.42h1.41l1.59,4.42Zm2.73,7.95L23,50.7l1.23-.36L25.81,55Zm2.73,7.94-1.59-4.69L27,58.2l1.58,4.69Zm1.14,3.25,1.15-.45,1.23,3.61,1.23-3.61,1.15.45L31.62,71H30.13ZM36,58.65l-1.59,4.69-1.23-.45,1.67-4.69Zm1.14-3.25L36,55l1.59-4.61,1.14.36Zm2.73-7.95-1.14-.36,1.59-4.69,1.14.45Z"/><path class="cls-1" d="M51.88,56.66a11.44,11.44,0,0,1,.18,2,5,5,0,0,0,.44,2L51.27,61a7.06,7.06,0,0,1-.4-2.13,18,18,0,0,0-.22-2.21Zm-1-3.07c.23-.72.44-1.43.61-2.12a7.36,7.36,0,0,1,.88-2l1.06.54a7.64,7.64,0,0,0-.79,1.85c-.18.64-.36,1.28-.53,1.94Zm4,14-1.37-1.76a8.57,8.57,0,0,1-1.1-1.95l1.06-.54a8.72,8.72,0,0,0,1,1.76c.38.51.81,1,1.28,1.58ZM54,46.82a9.1,9.1,0,0,1,1.5-1.67,16.77,16.77,0,0,1,1.76-1.31l.62,1c-.53.43-1.05.85-1.55,1.27A7.31,7.31,0,0,0,55,47.64Zm3.88,21.67a12.92,12.92,0,0,0,3.61,1.62l-.27,1.18a17.26,17.26,0,0,1-2.07-.68,7,7,0,0,1-1.89-1.13Zm6.34-25.64a14.44,14.44,0,0,1-1.94.23,5.14,5.14,0,0,0-1.94.49L60,42.4a6,6,0,0,1,2.07-.54c.73-.06,1.45-.15,2.16-.28Zm0,27.62a14,14,0,0,1,1.94-.22,5.12,5.12,0,0,0,1.93-.5l.44,1.18a6.84,6.84,0,0,1-2.11.54c-.71.06-1.44.15-2.2.27Zm6.34-25.64A11.75,11.75,0,0,0,67,43.21L67.3,42a14.63,14.63,0,0,1,2,.67,9.68,9.68,0,0,1,1.93,1.13Zm0,23.66c.53-.42,1-.84,1.54-1.27a9.39,9.39,0,0,0,1.37-1.44l1,.72a8.75,8.75,0,0,1-1.49,1.67c-.53.45-1.09.89-1.68,1.31ZM75,50a9,9,0,0,0-1-1.76c-.38-.51-.81-1-1.28-1.58l.88-.9c.47.6.94,1.19,1.41,1.76a7.65,7.65,0,0,1,1.15,1.94Zm2.91,12.64H76.64c-.24.6-.42,1-.53,1.26L75,63.34a7.26,7.26,0,0,0,.79-1.85c.18-.63.36-1.28.53-1.94h.36V58.11h1.23Zm0-15.35H76.64V42.76h1.23Zm0,7.68H76.64V50.43h1.23ZM76.64,70.29V65.78h1.23v4.51Z"/><path class="cls-1" d="M90.38,47.27V42.76h1.23v4.51Zm1.23,3.62,1,.36a8,8,0,0,0-.49,1.89c-.08.66-.19,1.33-.3,2A7.48,7.48,0,0,0,90.38,55V50.43h1.23Zm-1.23,7.22h1.23v4.6H90.38Zm0,7.76h1.23v4.51H90.38Zm2.2-17.78a8.61,8.61,0,0,1,1.1-1.85,16.54,16.54,0,0,1,1.37-1.58l.79.9a11.12,11.12,0,0,0-2.2,3.16Zm4.84-5.24a10.23,10.23,0,0,1,4.06-1.27l.09,1.27A7.47,7.47,0,0,0,98,44Zm7-1.08a10.3,10.3,0,0,1,3.88,1.62l-.71,1.08a5.62,5.62,0,0,0-1.58-1,10.12,10.12,0,0,0-1.76-.54Zm6.87,7.94a11.85,11.85,0,0,0-1.76-3.43l1-.81a16.68,16.68,0,0,1,1.1,1.85,17.47,17.47,0,0,1,.84,1.94Zm.71,6.68v-2a11.35,11.35,0,0,0-.18-2l1.24-.09c0,.42.1.84.13,1.26s0,.85,0,1.27v1.62Zm1.23,7H112V59.28h1.23ZM112,66.23h1.23v4.06H112Z"/><path class="cls-1" d="M126.05,56.75a11.35,11.35,0,0,1,.18,2,5,5,0,0,0,.44,2l-1.23.36A7.91,7.91,0,0,1,125,59a18,18,0,0,0-.22-2.21Zm1.59-6.68a7.49,7.49,0,0,0-.79,1.9c-.18.66-.36,1.32-.53,2l-1.24-.27c.24-.72.45-1.43.62-2.12a7.36,7.36,0,0,1,.88-2Zm0,13.36a10.11,10.11,0,0,0,1,1.81,12.36,12.36,0,0,0,1.28,1.53l-.88.91c-.47-.6-.93-1.19-1.37-1.77a9,9,0,0,1-1.1-1.85ZM132,45a13.28,13.28,0,0,0-1.54,1.22,10.16,10.16,0,0,0-1.36,1.49l-1-.82a13.32,13.32,0,0,1,3.26-3Zm3.35,26.45c-.7-.24-1.39-.5-2.07-.77a8.67,8.67,0,0,1-1.89-1l.61-1.08a13.11,13.11,0,0,0,3.62,1.62Zm3-28.53c-.65.12-1.3.21-1.94.27a5.89,5.89,0,0,0-1.94.54l-.35-1.26a6,6,0,0,1,2.07-.54q1.1-.09,2.16-.27Zm0,27.62a14,14,0,0,1,1.94-.22,5,5,0,0,0,1.93-.5L142.7,71a6.84,6.84,0,0,1-2.11.54c-.71.06-1.44.15-2.2.27Zm3.08-28.43a15.08,15.08,0,0,1,2,.67,9.68,9.68,0,0,1,1.93,1.13l-.7,1.09A6.61,6.61,0,0,0,143,44l-1.89-.72Zm3.26,26.45a14.44,14.44,0,0,0,1.54-1.22,11.42,11.42,0,0,0,1.37-1.49l1,.81a10.75,10.75,0,0,1-1.49,1.58c-.53.45-1.09.92-1.68,1.4Zm4.4-18.51a9,9,0,0,0-1-1.76c-.38-.51-.81-1-1.28-1.58l.88-.81c.47.54.94,1.11,1.41,1.72a9.28,9.28,0,0,1,1.15,1.89Zm2.73,13.36h-1.23v-.09a2.08,2.08,0,0,0-.35.72l-1.15-.63a7.26,7.26,0,0,0,.79-1.85c.18-.63.36-1.28.53-1.94h.18v-.27h1.23Zm0-41.71h-1.23V17.57h1.23Zm0,7h-1.23V24.52h1.23Zm0,7h-1.23V31.47h1.23Zm0,6.95h-1.23V38.52h1.23Zm0,7h-1.23V45.47h1.23Zm0,6.95h-1.23V52.42h1.23Zm-1.23,9.84h1.23v4.06h-1.23Z"/><path class="cls-1" d="M165.16,57.75a8.1,8.1,0,0,0,.27,2c.17.69.35,1.37.53,2l-1.15.45c-.23-.72-.44-1.46-.62-2.21a10,10,0,0,1-.26-2.21Zm1.15-7a13.08,13.08,0,0,0-.71,2,12.38,12.38,0,0,0-.35,2L164,54.59a11.64,11.64,0,0,1,.39-2.17c.21-.72.46-1.44.75-2.17ZM169,57.3H164.9V56H169Zm-1.85,7.12c.41.55.84,1.09,1.28,1.63a15,15,0,0,0,1.45,1.54l-.79.9a8.18,8.18,0,0,1-1.63-1.58l-1.37-1.76Zm-.53-17a13.08,13.08,0,0,1,1.5-1.76c.53-.51,1.06-1,1.58-1.49l.8,1c-.53.48-1,1-1.55,1.44a7.51,7.51,0,0,0-1.27,1.63ZM176,71.56a6.05,6.05,0,0,1-2.2-.41c-.71-.27-1.41-.55-2.12-.86l.62-1.08a12.19,12.19,0,0,0,1.85.77,6.18,6.18,0,0,0,1.93.31ZM172,56h4.14V57.3H172Zm4.85-13.09a9.57,9.57,0,0,0-3.88.9l-.53-1.17a10.69,10.69,0,0,1,4.41-1Zm2,27.35a6.51,6.51,0,0,0,2-.31c.65-.21,1.29-.44,1.94-.68l.53,1.17-2.12.73a6.77,6.77,0,0,1-2.2.36Zm.17-13V56h4.23V57.3ZM180,41.86l2.12.72a9.22,9.22,0,0,1,2,1l-.61,1.09a10.24,10.24,0,0,0-1.85-.91c-.65-.24-1.3-.45-1.94-.63Zm5.37,26a4,4,0,0,0,1.5-1.4,8.55,8.55,0,0,1,1.24-1.58l1.05.63a13.71,13.71,0,0,0-1.45,1.76A5.84,5.84,0,0,1,186,68.85Zm2.74-18.06A9.37,9.37,0,0,0,187,48a15.07,15.07,0,0,0-1.32-1.54l.88-.9c.47.54,1,1.11,1.45,1.71a7.62,7.62,0,0,1,1.19,2Zm2.29,2.35a7.35,7.35,0,0,1,.48,2.53c0,1,.07,1.83.13,2.62h-4.75V56h3.43c-.06-.54-.1-1.13-.13-1.76a4.87,4.87,0,0,0-.4-1.76Z"/><path class="cls-1" d="M204.27,47.36H203V42.85h1.23Zm0,7.68H203V50.52h1.23v.18l.09-.09,1.06.55a8.72,8.72,0,0,0-.66,1.8c-.15.6-.28,1.24-.4,1.9h-.09Zm0,7.67H203V58.2h1.23ZM203,65.87h1.23v4.51H203ZM205.68,48A18.79,18.79,0,0,1,207,46.33a8.65,8.65,0,0,1,1.54-1.4l.71,1a8.68,8.68,0,0,0-1.32,1.26,13.4,13.4,0,0,0-1.15,1.54ZM211,43.3A11.24,11.24,0,0,1,215,42.22v1.26a11.89,11.89,0,0,0-1.85.32,15.08,15.08,0,0,0-1.76.58Z"/><path class="cls-1" d="M228.32,21.81h-1.23V17.66h1.23Zm-1.23,2.89h1.23v4.07h-1.23Zm0,7h1.23v4.06h-1.23Zm0,7h1.23v4.06h-1.23Zm0,7h1.23v4.06h-1.23Zm0,6.95h1.23v4.06h-1.23Zm0,7h1.23v4.15h-1.23Zm0,6.95h1.23v4.15h-1.23Z"/><path class="cls-1" d="M241.62,47.18h-1.23V43h1.23ZM240.39,50h1.23v4.07h-1.23Zm1.23,7v2a11,11,0,0,0,.18,2l-1.23.18a7.45,7.45,0,0,1-.18-1.62V56.93Zm.71,6.68a9.49,9.49,0,0,0,.7,1.76c.3.58.62,1.13,1,1.67l-1,.73a6.36,6.36,0,0,1-1.1-1.81c-.27-.66-.54-1.32-.84-2Zm3.52,5.24a8.61,8.61,0,0,0,3.44,1.53L249,71.65a10.26,10.26,0,0,1-3.87-1.72ZM256,70.56a9.83,9.83,0,0,1-4,1.27l-.09-1.27a8.63,8.63,0,0,0,3.52-1.08Zm4.76-5.32a10.84,10.84,0,0,1-1.06,1.85c-.41.57-.85,1.13-1.32,1.67l-.88-.9a17.82,17.82,0,0,0,1.14-1.49,11.78,11.78,0,0,0,1-1.67ZM263.2,63H262V62l-.18.54-1.23-.36a7.09,7.09,0,0,0,.57-1.94,15.56,15.56,0,0,1,.4-1.94c.29.06.57.1.84.13a7.26,7.26,0,0,0,.83,0Zm0-15.43H262V43h1.23Zm0,7.76H262V50.8h1.23ZM262,66.14h1.23v4.52H262Z"/><path class="cls-1" d="M276.15,67a9.26,9.26,0,0,1-.88-3.79,3.16,3.16,0,0,1,.09-.9l1.14.18a7.24,7.24,0,0,0,.8,4Zm-.44-19.22a4.78,4.78,0,0,1,.93-2.26,8.71,8.71,0,0,1,1.71-1.72l.71,1.08a6.26,6.26,0,0,0-1.41,1.36,3.45,3.45,0,0,0-.71,1.81Zm4.05,6.5a10.34,10.34,0,0,1-2-1.18,5.46,5.46,0,0,1-1.59-1.89l1.15-.55a3.56,3.56,0,0,0,1.23,1.45,12.81,12.81,0,0,0,1.76,1Zm2.73,17.15a14.61,14.61,0,0,1-2.11-.72,10.41,10.41,0,0,1-2-1.18l.71-1a5.34,5.34,0,0,0,1.8,1.08,13.14,13.14,0,0,0,2,.54Zm-1.14-28.89a14.21,14.21,0,0,1,4.4-.63l.09,1.26a17,17,0,0,0-4.23.54Zm5.73,13.63c-.71-.12-1.43-.25-2.16-.4s-1.46-.32-2.16-.5l.35-1.27c.71.19,1.41.35,2.12.5s1.4.32,2.11.5Zm3.08,15.35a11.92,11.92,0,0,1-2.25.31c-.73,0-1.48,0-2.24,0l.08-1.27c.65,0,1.33,0,2,0a10.26,10.26,0,0,0,2.11-.32ZM288.92,42a9.55,9.55,0,0,1,2.25.45c.74.24,1.45.51,2.16.81l-.62,1.17a16.56,16.56,0,0,0-1.94-.76,8.94,8.94,0,0,0-2-.41Zm4.94,16.25a8.86,8.86,0,0,0-1.85-.86c-.65-.21-1.32-.41-2-.59l.35-1.26q1.07.27,2.16.63a8.76,8.76,0,0,1,2.07,1Zm-1.24,10.92a6.11,6.11,0,0,0,1.68-1.13,12.65,12.65,0,0,0,1.32-1.49l1.06.72a10.5,10.5,0,0,1-3.53,3.07Zm3.53-19.32a5.59,5.59,0,0,0-1.32-3.61l1-.81a7.07,7.07,0,0,1,1.58,4.33v.27Zm.79,9.66a6,6,0,0,1,1.14,3.52,5.1,5.1,0,0,1-.17,1.18L296.76,64a5.61,5.61,0,0,0-.79-3.79Z"/><path class="cls-1" d="M312,43.48h-3.52V42.22H312Zm6,0h-3.52V42.22h1V38.79h1.23v3.43H318Zm-2.55-11.64h1.23V35.9h-1.23Zm1.23,18h-1.23V45.74h1.23Zm7.23-6.32h-3.53V42.22h3.53Z"/><path class="cls-1" d="M315.48,59.65h1.23v3.71l-1.23-.09Zm0-6.78h1.23v3.71h-1.23ZM317.07,66a10.16,10.16,0,0,0,1.05,1.85,4,4,0,0,0,1.59,1.31l-.62,1.09a5.28,5.28,0,0,1-1.94-1.58,8.14,8.14,0,0,1-1.23-2.31Zm10,5.42a8.9,8.9,0,0,1-2.2.27,11.18,11.18,0,0,1-2.56-.27l.18-1.26a10.27,10.27,0,0,0,2.38.27,7.13,7.13,0,0,0,1.93-.27ZM334,66.86a12.47,12.47,0,0,1-1.72,1.76c-.62.51-1.28,1-2,1.49L329.66,69a14.64,14.64,0,0,0,1.76-1.31,10.8,10.8,0,0,0,1.5-1.58Z"/><polygon class="cls-2" points="273.73 16.25 266.81 16.25 252.64 0 259.57 0 273.73 16.25"/><polygon class="cls-3" points="280.69 16.25 273.76 16.25 259.6 0 266.52 0 280.69 16.25"/><polygon class="cls-4" points="287.65 16.25 280.72 16.25 266.56 0 273.48 0 287.65 16.25"/><polygon class="cls-3" points="294.6 16.25 287.68 16.25 273.51 0 280.44 0 294.6 16.25"/><polygon class="cls-2" points="301.56 16.25 294.64 16.25 280.47 0 287.4 0 301.56 16.25"/><polygon class="cls-3" points="308.52 16.25 301.59 16.25 287.43 0 294.35 0 308.52 16.25"/><polygon class="cls-4" points="315.48 16.25 308.55 16.25 294.38 0 301.31 0 315.48 16.25"/></g></g></svg>